# xmcd
#
# Track frame offsets: 
#        150
#        9567
#        23482
#        35120
#        47447
#        61497
#        75095
#        84177
#        97320
#        110570
#        120765
#        132322
#        144105
#        157575
#        169352
#        178997
#        193287
#        206695
#        219425
#        228995
#
# Disc length: 3228 seconds
#
# Revision: 0
# Processed by: cddbd v1.5.1PL2 Copyright (c) Steve Scherf et al.
# Submitted via: ExactAudioCopy v0.95b4
#
DISCID=020c9a14
DTITLE=Various Artist - Timeless Country Hits
DYEAR=1900
DGENRE=Country
TTITLE0=Willie Nelson - If You've Got The Money I've Got The Time
TTITLE1=Tanya Tucker - What's Your Mama's Name
TTITLE2=Johnny Horton - When It's Springtime In Alaska
TTITLE3=Johnny Cash and June Carter - Jackson
TTITLE4=George Jones - The Grand Tour
TTITLE5=Ray Price - City Lights
TTITLE6=The Harden Trio - Tippy Toeing
TTITLE7=Johnny Paycheck - She's All I Got
TTITLE8=Lynn Anderson - Top Of The World
TTITLE9=Billy Walker - Charlie's Shoes
TTITLE10=Joe Stampley - Roll On Big Mama
TTITLE11=Tammy Wynette - I Don't Wanna Play House
TTITLE12=Claude King - Wolverton Mountain
TTITLE13=Henson Cargill - Ship A Rope
TTITLE14=Charly Mcclain - Who's Cheatin' Who
TTITLE15=Lefty Frizzel - The Long Black Veil
TTITLE16=David Houston - Almost Persuaded
TTITLE17=Mickey Gilley - Room Full Of Roses
TTITLE18=Jimmy Dean and The Chuck Casey Singers - The First Thing Ev'ry 
TTITLE18=Morning
TTITLE19=Billy Swan - I Can Help
EXTD=
EXTT0=
EXTT1=
EXTT2=
EXTT3=
EXTT4=
EXTT5=
EXTT6=
EXTT7=
EXTT8=
EXTT9=
EXTT10=
EXTT11=
EXTT12=
EXTT13=
EXTT14=
EXTT15=
EXTT16=
EXTT17=
EXTT18=
EXTT19=
PLAYORDER=
